<svg xmlns="http://www.w3.org/2000/svg" xmlns:xlink="http://www.w3.org/1999/xlink" width="500" zoomAndPan="magnify" viewBox="0 0 375 374.999991" height="500" preserveAspectRatio="xMidYMid meet" version="1.0"><defs><clipPath id="id1"><path d="M 35.769531 40.941406 L 330 40.941406 L 330 334.558594 L 35.769531 334.558594 Z M 35.769531 40.941406 " clip-rule="nonzero"/></clipPath><clipPath id="id2"><path d="M 68 268 L 229 268 L 229 334.558594 L 68 334.558594 Z M 68 268 " clip-rule="nonzero"/></clipPath><clipPath id="id3"><path d="M 222 134 L 339.519531 134 L 339.519531 247 L 222 247 Z M 222 134 " clip-rule="nonzero"/></clipPath></defs><g clip-path="url(#id1)"><path fill="rgb(88.238525%, 88.62915%, 88.238525%)" d="M 182.546875 40.941406 C 263.609375 40.941406 329.296875 106.679688 329.296875 187.765625 C 329.296875 268.847656 263.609375 334.558594 182.546875 334.558594 C 101.484375 334.558594 35.769531 268.847656 35.769531 187.765625 C 35.769531 106.679688 101.484375 40.941406 182.546875 40.941406 " fill-opacity="1" fill-rule="nonzero"/></g><g clip-path="url(#id2)"><path fill="rgb(12.548828%, 12.548828%, 13.729858%)" d="M 228.203125 327.277344 C 170.574219 346.132812 107.285156 327.601562 68.9375 280.636719 C 77.621094 272.761719 88.917969 268.445312 100.625 268.445312 L 175.347656 268.445312 C 196.164062 268.417969 214.53125 282.039062 220.597656 301.945312 L 228.203125 327.277344 " fill-opacity="1" fill-rule="nonzero"/></g><path fill="rgb(98.429871%, 76.469421%, 63.139343%)" d="M 158.734375 247.566406 L 158.734375 275.945312 C 158.734375 277.804688 157.683594 279.53125 156.011719 280.367188 L 140.128906 288.082031 C 138.753906 288.785156 137.109375 288.785156 135.734375 288.082031 L 119.90625 280.179688 C 118.230469 279.371094 117.179688 277.644531 117.207031 275.78125 L 117.207031 247.566406 C 117.207031 244.867188 119.390625 242.683594 122.089844 242.683594 L 153.773438 242.683594 C 156.472656 242.628906 158.683594 244.816406 158.734375 247.511719 L 158.734375 247.566406 " fill-opacity="1" fill-rule="nonzero"/><path fill="rgb(19.999695%, 19.999695%, 21.179199%)" d="M 137.972656 298.980469 C 135.625 298.980469 133.28125 298.441406 131.121094 297.359375 L 115.292969 289.429688 C 110.117188 286.867188 106.824219 281.582031 106.878906 275.78125 L 106.878906 268.445312 L 117.207031 268.445312 L 117.207031 275.78125 C 117.207031 275.808594 117.207031 275.808594 117.207031 275.835938 C 117.207031 276.753906 117.476562 277.644531 117.9375 278.398438 C 118.394531 279.152344 119.09375 279.773438 119.90625 280.179688 L 135.789062 288.136719 C 136.460938 288.460938 137.214844 288.648438 137.972656 288.648438 C 138.699219 288.648438 139.453125 288.460938 140.128906 288.136719 L 143.230469 286.570312 L 156.011719 280.367188 C 157.683594 279.53125 158.734375 277.804688 158.734375 275.945312 L 158.734375 268.445312 L 169.226562 268.445312 L 169.226562 275.78125 C 169.253906 281.582031 165.988281 286.867188 160.785156 289.429688 L 144.820312 297.359375 C 142.664062 298.441406 140.316406 298.980469 137.972656 298.980469 " fill-opacity="1" fill-rule="nonzero"/><path fill="rgb(98.429871%, 78.42865%, 66.668701%)" d="M 143.230469 286.570312 L 156.011719 280.125 C 157.65625 279.316406 158.710938 277.644531 158.734375 275.78125 L 158.734375 275.945312 C 158.734375 277.804688 157.683594 279.53125 156.011719 280.367188 L 143.230469 286.570312 M 117.9375 278.398438 C 117.476562 277.644531 117.207031 276.753906 117.207031 275.835938 C 117.207031 276.753906 117.476562 277.644531 117.9375 278.398438 M 117.207031 275.835938 C 117.207031 275.808594 117.207031 275.808594 117.207031 275.78125 L 117.207031 268.445312 L 117.207031 275.835938 " fill-opacity="1" fill-rule="nonzero"/><path fill="rgb(98.429871%, 76.469421%, 63.139343%)" d="M 137.972656 119.140625 C 197.324219 119.140625 192.308594 175.085938 192.308594 175.085938 C 201.019531 174.167969 207.867188 177.648438 207.867188 189.921875 C 207.867188 202.222656 202.421875 204.730469 195.679688 205.433594 C 194.925781 205.460938 194.304688 206.078125 194.277344 206.835938 C 192.253906 225.988281 178.71875 240.011719 165.371094 249.375 C 148.945312 260.917969 127.023438 260.917969 110.628906 249.375 C 97.304688 239.960938 83.714844 225.933594 81.691406 206.835938 C 81.664062 206.078125 81.046875 205.460938 80.289062 205.433594 C 73.496094 204.730469 68.101562 202.167969 68.101562 189.921875 C 68.101562 177.703125 74.679688 174.167969 83.390625 175.085938 C 83.390625 175.085938 78.539062 119.140625 137.972656 119.140625 " fill-opacity="1" fill-rule="nonzero"/><path fill="rgb(89.408875%, 69.018555%, 58.428955%)" d="M 138 265.882812 C 130.90625 265.882812 123.789062 264.289062 117.261719 261.109375 L 117.261719 253.339844 C 123.789062 256.523438 130.90625 258.113281 138 258.113281 C 145.089844 258.113281 152.183594 256.523438 158.734375 253.339844 L 158.734375 261.109375 C 152.183594 264.289062 145.089844 265.882812 138 265.882812 " fill-opacity="1" fill-rule="nonzero"/><path fill="rgb(11.369324%, 11.369324%, 17.649841%)" d="M 117.476562 177.433594 C 122.332031 177.433594 126.269531 181.371094 126.269531 186.226562 C 126.269531 191.109375 122.332031 195.046875 117.476562 195.046875 C 112.597656 195.046875 108.660156 191.109375 108.660156 186.226562 C 108.660156 181.371094 112.597656 177.433594 117.476562 177.433594 " fill-opacity="1" fill-rule="nonzero"/><path fill="rgb(11.369324%, 11.369324%, 17.649841%)" d="M 158.519531 177.433594 C 163.375 177.433594 167.3125 181.371094 167.3125 186.226562 C 167.3125 191.109375 163.375 195.046875 158.519531 195.046875 C 153.640625 195.046875 149.703125 191.109375 149.703125 186.226562 C 149.703125 181.371094 153.640625 177.433594 158.519531 177.433594 " fill-opacity="1" fill-rule="nonzero"/><path fill="rgb(12.548828%, 12.548828%, 13.729858%)" d="M 197.59375 145.007812 C 197.351562 140.71875 196.570312 136.457031 195.300781 132.359375 C 196.949219 125.371094 197.269531 118.144531 196.21875 111.019531 C 195.789062 108.945312 193.738281 107.621094 191.660156 108.054688 L 191.121094 108.214844 C 189.882812 108.703125 188.5625 109.078125 187.210938 109.511719 C 187.457031 107.570312 187.457031 105.597656 187.210938 103.628906 C 186.890625 101.472656 184.867188 99.960938 182.710938 100.285156 L 181.765625 100.527344 C 168.308594 104.816406 154.339844 107.273438 140.238281 107.890625 L 137.972656 107.890625 C 106.367188 107.890625 80.722656 109.457031 78.160156 145.007812 C 77.648438 154.585938 78.027344 164.160156 79.265625 173.683594 C 79.480469 178.429688 80.046875 183.179688 80.882812 187.871094 C 81.800781 191.621094 91.75 191.460938 92.183594 187.871094 C 92.640625 184.285156 90.457031 166.101562 99.300781 149.8125 C 111.761719 154.289062 124.894531 156.445312 138.132812 156.121094 C 151.265625 156.367188 164.371094 154.207031 176.722656 149.703125 C 185.566406 166.375 183.355469 185.09375 183.839844 187.765625 C 184.328125 190.40625 194.277344 191.242188 195.140625 187.765625 C 195.921875 183.554688 196.40625 179.347656 196.597656 175.085938 C 197.890625 165.105469 198.214844 155.042969 197.59375 145.007812 " fill-opacity="1" fill-rule="nonzero"/><g clip-path="url(#id3)"><path fill="rgb(74.899292%, 11.759949%, 21.179199%)" d="M 322.125 134.410156 L 240.203125 134.410156 C 230.628906 134.433594 222.890625 142.203125 222.863281 151.753906 L 222.863281 202.332031 C 222.917969 211.609375 230.222656 219.214844 239.5 219.621094 L 234.890625 240.285156 C 234.296875 243.222656 236.183594 246.082031 239.121094 246.703125 C 240.632812 247 242.222656 246.648438 243.464844 245.707031 L 277.28125 219.675781 L 322.179688 219.675781 C 331.726562 219.648438 339.492188 211.90625 339.519531 202.332031 L 339.519531 151.753906 C 339.492188 142.175781 331.699219 134.410156 322.125 134.410156 " fill-opacity="1" fill-rule="nonzero"/></g><path fill="rgb(32.939148%, 7.839966%, 13.328552%)" d="M 120.363281 230.328125 C 116.316406 230.328125 113.054688 227.09375 113.054688 223.046875 C 113.054688 221.617188 113.460938 220.214844 114.269531 219.027344 C 119.714844 211.394531 128.585938 206.96875 137.972656 207.210938 C 147.328125 206.96875 156.199219 211.394531 161.648438 219.027344 C 163.886719 222.371094 162.96875 226.902344 159.625 229.117188 C 158.359375 229.953125 156.875 230.382812 155.363281 230.328125 L 120.363281 230.328125 " fill-opacity="1" fill-rule="nonzero"/><path fill="rgb(74.899292%, 11.759949%, 21.179199%)" d="M 150.78125 230.328125 L 125.136719 230.328125 C 125.917969 224.042969 131.660156 219.59375 137.945312 220.375 L 137.972656 220.375 C 144.253906 219.566406 150 224.019531 150.78125 230.300781 L 150.78125 230.328125 " fill-opacity="1" fill-rule="nonzero"/><path fill="rgb(100%, 100%, 100%)" d="M 264.445312 201.144531 C 260.398438 201.25 257 198.066406 256.894531 194.023438 C 256.839844 192 257.59375 190.058594 259.023438 188.628906 L 292.707031 155.125 C 295.589844 152.265625 300.230469 152.265625 303.085938 155.125 C 305.972656 158.011719 305.972656 162.652344 303.085938 165.511719 L 269.515625 198.957031 C 268.164062 200.308594 266.359375 201.089844 264.445312 201.144531 Z M 153.558594 211.421875 L 153.558594 212.984375 C 153.558594 214.0625 152.695312 214.953125 151.617188 215.007812 L 124.433594 215.007812 C 123.328125 214.953125 122.464844 214.0625 122.464844 212.984375 L 122.464844 211.421875 C 132.121094 205.808594 144.011719 205.808594 153.667969 211.421875 L 153.558594 211.421875 " fill-opacity="1" fill-rule="nonzero"/><path fill="rgb(100%, 100%, 100%)" d="M 297.882812 201.144531 C 295.859375 201.195312 293.890625 200.441406 292.4375 199.011719 L 259.023438 165.5625 C 256.140625 162.675781 256.140625 157.984375 259.050781 155.097656 C 261.9375 152.210938 266.628906 152.238281 269.515625 155.125 L 302.953125 188.574219 C 305.785156 191.460938 305.757812 196.097656 302.898438 198.957031 C 301.46875 200.359375 299.527344 201.144531 297.503906 201.089844 L 297.882812 201.144531 " fill-opacity="1" fill-rule="nonzero"/></svg>